<svg xmlns="http://www.w3.org/2000/svg" width="228.203" height="55.037" viewBox="0 0 228.203 55.037">
  <g id="Grupo_520" data-name="Grupo 520" transform="translate(-494.949 -389.12)">
    <g id="Grupo_521" data-name="Grupo 521" transform="translate(465.589 369.922)">
      <path id="Caminho_470" data-name="Caminho 470" d="M517.069,431.849l7.427-30.917,9.806.031c14.122.045,6.1,30.669-6.514,30.785l-10.72.1m-9.58-42.729-13.577,54.848,34.807-.052h.053c37.942,0,44.386-54.723,10.328-54.76l-31.612-.036" transform="translate(-464.552 -369.922)" fill="#00325d"/>
      <path id="Caminho_471" data-name="Caminho 471" d="M651.4,389.12H631.937l-13.324,55.037H638.08Z" transform="translate(-459.986 -369.922)" fill="#00325d"/>
      <path id="Caminho_472" data-name="Caminho 472" d="M716.334,389.12H655.007l-3.195,13.52h19.972l-10.539,41.518h20.13l10.585-41.518h21.052Z" transform="translate(-458.77 -369.922)" fill="#00325d"/>
      <path id="Caminho_473" data-name="Caminho 473" d="M629.251,389.12h-18.4l-7.925,32.062L586.78,389.12H568.862l-13.6,55.037,18.4-.055,8.017-31.929,15.674,31.983,19.077-.069Z" transform="translate(-462.306 -369.922)" fill="#00325d"/>
    </g>
  </g>
</svg>
